<?xml version="1.0" standalone="no"?><!DOCTYPE svg PUBLIC "-//W3C//DTD SVG 1.1//EN" "http://www.w3.org/Graphics/SVG/1.1/DTD/svg11.dtd"><svg t="1702278115719" class="icon" viewBox="0 0 1024 1024" version="1.1" xmlns="http://www.w3.org/2000/svg" p-id="3862" xmlns:xlink="http://www.w3.org/1999/xlink" width="200" height="200"><path d="M303.6 146.7H266v-37.6c0-6.9-5.6-12.5-12.5-12.5s-12.5 5.6-12.5 12.5v37.6h-37.6c-6.9 0-12.5 5.6-12.5 12.5s5.6 12.5 12.5 12.5H241v37.6c0 6.9 5.6 12.5 12.5 12.5s12.5-5.6 12.5-12.5v-37.6h37.6c6.9 0 12.5-5.6 12.5-12.5s-5.6-12.5-12.5-12.5z" fill="#F29808" p-id="3863"></path><path d="M215.5 286.5c-5.7-5.7-15-5.7-20.7 0l-4.4 4.4-4.4-4.4c-5.7-5.7-15-5.7-20.7 0s-5.7 15 0 20.7l14.8 14.8c5.7 5.7 15 5.7 20.7 0l14.8-14.8c5.6-5.7 5.6-15-0.1-20.7z" fill="#F29808" opacity=".47" p-id="3864"></path><path d="M906.1 933.5c-1.3-11.2-11.5-19.3-22.6-18.1l-8.7 1-1-8.7c-1.3-11.2-11.5-19.3-22.6-18.1-11.2 1.3-19.3 11.5-18.1 22.6l3.3 29.1c1.3 11.2 11.5 19.3 22.6 18.1l29.1-3.3c11.1-1.2 19.2-11.4 18-22.6z" fill="#F29808" p-id="3865"></path><path d="M421.5 134.2c-17.3 0-31.3-14-31.3-31.3s14-31.3 31.3-31.3 31.3 14 31.3 31.3-14 31.3-31.3 31.3z m0-50.1c-10.4 0-18.8 8.4-18.8 18.8s8.4 18.8 18.8 18.8 18.8-8.4 18.8-18.8-8.4-18.8-18.8-18.8z" fill="#F29808" opacity=".47" p-id="3866"></path><path d="M204.8 779.8L407 577.6c4.6-4.6 12.1-4.6 16.7 0l27.1 27.1c2.3 2.3 1.8 6.2-1 7.9-21.2 12.3-32.9 19.9-74.4 116.7-18.8 46.8-107.4 93.5-167.9 66.7-6.3-2.8-7.6-11.3-2.7-16.2z" fill="#F29808" opacity=".47" p-id="3867"></path><path d="M258.4 789h-1.8c-6.9-0.1-12.4-5.8-12.3-12.8 0.1-6.8 5.7-12.3 12.5-12.3h1.6c19.2 0 41.6-8.1 58.8-21.3 5.5-4.2 13.4-3.2 17.6 2.3 4.2 5.5 3.2 13.3-2.3 17.6-21.7 16.6-49.2 26.5-74.1 26.5z" fill="#FFFFFF" p-id="3868"></path><path d="M201.9 870.4c-19.6 0-38.1-3.6-54.6-11-7.4-3.3-12.7-10-14.2-18-1.5-8.2 1.1-16.7 7-22.6l253.1-253.1c10.6-10.6 28-10.6 38.6 0l33.9 33.9c4.1 4.1 6.1 9.9 5.3 15.7-0.8 5.8-4.1 10.9-9.2 13.8-23.9 14-37.1 21.7-88 140.2-13.1 32.9-51.7 66.6-98.2 85.5-25.2 10.4-50.2 15.6-73.7 15.6z m210.6-287.6c-0.6 0-1.1 0.2-1.6 0.7L157.8 836.6c-0.1 0.1 0 0.3 0 0.3 29.2 12.8 68.9 11 108.6-5.2 39.8-16.2 73.8-45.1 84.5-71.9 48-111.9 65.1-131.7 91.5-148.1l-28.2-28.2c-0.5-0.5-1.1-0.7-1.7-0.7z" p-id="3869"></path><path d="M498.8 585.1c-3.3 0-6.5-1.3-8.9-3.7 0 0-1.4-1.3-1.7-1.4 24.9-24.2 83.6-83.4 109.9-110 14.4-14.6 14.3-38.2-0.2-52.7-7.1-7.1-16.6-11-26.6-11-10.4 0-20.4 4.4-27.5 12.1-50.1 54.3-88.8 93.1-108.6 108.9-0.5-0.6-1.9-2.4-1.9-2.4l-0.6-0.6c-2.4-2.4-3.7-5.5-3.7-8.9 0-3.4 1.3-6.5 3.7-8.8L743 196.3c2.4-2.4 5.5-3.7 8.9-3.7 3.3 0 6.5 1.3 8.9 3.7l57.1 57.1c2.4 2.4 3.7 5.5 3.7 8.9 0 3.4-1.3 6.5-3.7 8.8L507.6 581.4c-2.3 2.4-5.5 3.7-8.8 3.7z" fill="#F29808" opacity=".47" p-id="3870"></path><path d="M817.9 271.1c2.4-2.4 3.7-5.5 3.7-8.8 0-3.3-1.3-6.5-3.7-8.9l-9.8-9.8L608.8 443c0.2 9.8-3.3 19.6-10.7 27-26.3 26.6-85 85.8-109.9 110 0.2 0.2 1.7 1.4 1.7 1.4 2.4 2.4 5.5 3.7 8.9 3.7 3.4 0 6.5-1.3 8.9-3.7l310.2-310.3z" fill="#F29808" p-id="3871"></path><path d="M511.3 597.6c-9.8 0-19-3.7-26-10.5-13.4-10.8-13.6-17.1-13.7-19.8l-0.2-5.7 4.6-5c16.8-15.5 87.3-86.8 116.9-116.7 4.7-4.8 4.7-12.6-0.1-17.4-2.5-2.4-5.6-3.7-9.1-3.7-3.4 0.1-6.5 1.5-8.9 4-33.8 36.7-94.4 100.7-119.5 117.6-8.5 5.6-18 1.7-28.3-11.5a37.3 37.3 0 0 1-10.4-25.9c0-10 3.9-19.5 11-26.6l322.8-322.8c14.1-14.2 38.9-14.2 53.1 0l57.1 57.1c7.1 7.1 11 16.5 11 26.6 0 10-3.9 19.5-11 26.6L537.9 586.6c-7.1 7.1-16.6 11-26.6 11z m-10.5-30.1c0.2 0.2 0.4 0.3 0.6 0.5l1.1 0.9c4.8 4.7 13 4.7 17.7 0L843 246.1c2.4-2.4 3.7-5.5 3.7-8.9 0-3.3-1.3-6.5-3.7-8.9l-57.1-57.1c-4.8-4.7-13-4.7-17.7 0L445.3 494.1c-2.4 2.4-3.7 5.5-3.7 8.9 0 3.3 1.3 6.5 3.7 8.9l1.1 1.2c0.4 0.6 0.9 1.1 1.4 1.7 19.8-15.8 58.5-54.6 108.6-108.9 7-7.6 16.5-11.8 26.8-12.1 10.3 0.2 20 3.7 27.3 11 14.5 14.5 14.6 38.1 0.2 52.7-26.3 26.6-85 85.8-109.9 110zM448.3 530h0.1-0.1z m-6.9-10.4zM337.6 858.4h-75.1c-6.9 0-12.5-5.6-12.5-12.5s5.6-12.5 12.5-12.5h75.1c6.9 0 12.5 5.6 12.5 12.5s-5.6 12.5-12.5 12.5zM744.7 858.4H628.4c-6.9 0-12.5-5.6-12.5-12.5s5.6-12.5 12.5-12.5h116.3c6.9 0 12.5 5.6 12.5 12.5s-5.5 12.5-12.5 12.5z m-203.5 0H424.8c-6.9 0-12.5-5.6-12.5-12.5s5.6-12.5 12.5-12.5h116.3c6.9 0 12.5 5.6 12.5 12.5s-5.5 12.5-12.4 12.5zM907.1 858.4H832c-6.9 0-12.5-5.6-12.5-12.5s5.6-12.5 12.5-12.5h75.1c6.9 0 12.5 5.6 12.5 12.5s-5.6 12.5-12.5 12.5z" p-id="3872"></path></svg>