<?xml version="1.0" standalone="no"?><!DOCTYPE svg PUBLIC "-//W3C//DTD SVG 1.1//EN" "http://www.w3.org/Graphics/SVG/1.1/DTD/svg11.dtd"><svg t="1702343191944" class="icon" viewBox="0 0 1024 1024" version="1.1" xmlns="http://www.w3.org/2000/svg" p-id="8443" xmlns:xlink="http://www.w3.org/1999/xlink" width="200" height="200"><path d="M409.6 597.333333v-166.4h0.580267a38.2976 38.2976 0 0 0-0.580267 6.4c0-41.591467 65.911467-77.687467 162.7136-96H61.576533A61.576533 61.576533 0 0 0 0 402.909867v201.096533A61.576533 61.576533 0 0 0 61.576533 665.6H409.6v-68.266667z" fill="#424A60" p-id="8444"></path><path d="M410.180267 904.533333H409.6V665.6H61.576533A61.576533 61.576533 0 0 0 0 727.176533v201.096534A61.576533 61.576533 0 0 0 61.576533 989.866667h490.120534c-80.64-18.244267-135.645867-49.442133-141.5168-85.333334zM928.290133 341.333333H61.576533A61.5936 61.5936 0 0 1 0 279.7568V78.6432A61.5936 61.5936 0 0 1 61.576533 17.066667h866.696534A61.5936 61.5936 0 0 1 989.866667 78.6432v201.096533A61.5936 61.5936 0 0 1 928.290133 341.333333z" fill="#556080" p-id="8445"></path><path d="M162.133333 179.2m-59.733333 0a59.733333 59.733333 0 1 0 119.466667 0 59.733333 59.733333 0 1 0-119.466667 0Z" fill="#7383BF" p-id="8446"></path><path d="M836.266667 153.6m-17.066667 0a17.066667 17.066667 0 1 0 34.133333 0 17.066667 17.066667 0 1 0-34.133333 0Z" fill="#7383BF" p-id="8447"></path><path d="M768 153.6m-17.066667 0a17.066667 17.066667 0 1 0 34.133334 0 17.066667 17.066667 0 1 0-34.133334 0Z" fill="#7383BF" p-id="8448"></path><path d="M870.4 204.8m-17.066667 0a17.066667 17.066667 0 1 0 34.133334 0 17.066667 17.066667 0 1 0-34.133334 0Z" fill="#7383BF" p-id="8449"></path><path d="M802.133333 204.8m-17.066666 0a17.066667 17.066667 0 1 0 34.133333 0 17.066667 17.066667 0 1 0-34.133333 0Z" fill="#7383BF" p-id="8450"></path><path d="M699.733333 153.6m-17.066666 0a17.066667 17.066667 0 1 0 34.133333 0 17.066667 17.066667 0 1 0-34.133333 0Z" fill="#7383BF" p-id="8451"></path><path d="M733.866667 204.8m-17.066667 0a17.066667 17.066667 0 1 0 34.133333 0 17.066667 17.066667 0 1 0-34.133333 0Z" fill="#7383BF" p-id="8452"></path><path d="M631.466667 153.6m-17.066667 0a17.066667 17.066667 0 1 0 34.133333 0 17.066667 17.066667 0 1 0-34.133333 0Z" fill="#7383BF" p-id="8453"></path><path d="M665.6 204.8m-17.066667 0a17.066667 17.066667 0 1 0 34.133334 0 17.066667 17.066667 0 1 0-34.133334 0Z" fill="#7383BF" p-id="8454"></path><path d="M563.2 153.6m-17.066667 0a17.066667 17.066667 0 1 0 34.133334 0 17.066667 17.066667 0 1 0-34.133334 0Z" fill="#7383BF" p-id="8455"></path><path d="M597.333333 204.8m-17.066666 0a17.066667 17.066667 0 1 0 34.133333 0 17.066667 17.066667 0 1 0-34.133333 0Z" fill="#7383BF" p-id="8456"></path><path d="M162.133333 503.466667m-59.733333 0a59.733333 59.733333 0 1 0 119.466667 0 59.733333 59.733333 0 1 0-119.466667 0Z" fill="#7383BF" p-id="8457"></path><path d="M162.133333 827.733333m-59.733333 0a59.733333 59.733333 0 1 0 119.466667 0 59.733333 59.733333 0 1 0-119.466667 0Z" fill="#7383BF" p-id="8458"></path><path d="M716.8 832c-169.659733 0-307.2-48.708267-307.2-108.8V904.533333h0.580267c9.352533 57.105067 143.035733 102.4 306.619733 102.4s297.2672-45.294933 306.619733-102.4H1024V723.2c0 60.091733-137.540267 108.8-307.2 108.8zM409.6 716.8v6.4c0-2.1504 0.221867-4.283733 0.580267-6.4H409.6zM1023.419733 716.8c0.3584 2.116267 0.580267 4.2496 0.580267 6.4V716.8h-0.580267z" fill="#1A9172" p-id="8459"></path><path d="M716.8 648.533333c-169.659733 0-307.2-48.708267-307.2-108.8V729.6h0.580267c9.352533 57.105067 143.035733 102.4 306.619733 102.4s297.2672-45.294933 306.619733-102.4H1024V539.733333C1024 599.825067 886.459733 648.533333 716.8 648.533333zM409.6 533.333333v6.4c0-2.1504 0.221867-4.283733 0.580267-6.4H409.6zM1023.419733 533.333333c0.3584 2.116267 0.580267 4.2496 0.580267 6.4v-6.4h-0.580267z" fill="#25AE88" p-id="8460"></path><path d="M409.6 364.8a307.2 108.8 0 1 0 614.4 0 307.2 108.8 0 1 0-614.4 0Z" fill="#88C057" p-id="8461"></path><path d="M716.8 473.6c-169.659733 0-307.2-48.708267-307.2-108.8V546.133333h0.580267c9.352533 57.105067 143.035733 102.4 306.619733 102.4s297.2672-45.294933 306.619733-102.4H1024V364.8c0 60.091733-137.540267 108.8-307.2 108.8zM409.6 358.4v6.4c0-2.1504 0.221867-4.283733 0.580267-6.4H409.6zM1023.419733 358.4c0.3584 2.116267 0.580267 4.2496 0.580267 6.4V358.4h-0.580267z" fill="#61B872" p-id="8462"></path></svg>